<?xml version="1.0" standalone="no"?>
<!DOCTYPE svg PUBLIC "-//W3C//DTD SVG 20010904//EN"
 "http://www.w3.org/TR/2001/REC-SVG-20010904/DTD/svg10.dtd">
<svg version="1.0" xmlns="http://www.w3.org/2000/svg"
 width="750.000000pt" height="750.000000pt" viewBox="0 0 750.000000 750.000000"
 preserveAspectRatio="xMidYMid meet">
<metadata>
Created by potrace 1.14, written by Peter Selinger 2001-2017
</metadata>
<g transform="translate(0.000000,750.000000) scale(0.100000,-0.100000)"
fill="#000000" stroke="none">
<path d="M3645 6202 c-2 -3 -28 -6 -56 -8 -58 -3 -138 -12 -189 -20 -19 -3
-44 -7 -55 -8 -120 -16 -340 -77 -500 -139 -89 -34 -318 -147 -323 -159 -2 -4
-8 -8 -14 -8 -10 0 -208 -128 -208 -135 0 -2 9 -2 20 0 23 4 24 1 10 -25 -8
-16 -8 -18 5 -14 8 4 15 10 15 15 0 5 6 9 13 9 7 0 21 11 31 25 10 14 25 25
32 25 8 0 43 18 78 40 36 21 107 60 158 85 51 26 101 51 110 56 36 18 249 98
283 105 6 1 52 14 104 28 52 14 97 24 99 21 2 -2 14 0 27 5 13 5 43 12 66 15
24 3 56 8 70 10 82 14 164 19 329 19 208 0 256 -4 455 -39 162 -28 395 -102
562 -180 68 -32 94 -40 103 -31 8 8 14 7 21 -6 12 -22 38 -48 48 -48 11 0 1
49 -12 57 -6 3 -7 1 -3 -5 4 -7 2 -12 -4 -12 -7 0 -14 9 -17 20 -8 29 -165
103 -375 175 -54 19 -98 32 -98 30 0 -3 -12 0 -27 6 -33 12 -230 55 -293 63
-25 3 -56 8 -70 11 -72 12 -386 26 -395 17z"/>
<path d="M3585 6072 c-2 -2 -28 -6 -57 -7 -57 -4 -100 -10 -188 -26 -30 -6
-68 -13 -85 -15 -31 -5 -258 -70 -285 -81 -8 -3 -17 -7 -20 -8 -3 -1 -18 -7
-35 -14 -16 -6 -54 -21 -83 -33 -29 -11 -55 -25 -58 -30 -8 -13 17 -29 30 -20
12 7 46 11 46 5 0 -3 -5 -13 -10 -23 -13 -24 8 -40 22 -17 5 9 15 14 23 11 19
-8 95 27 95 43 0 7 7 13 16 13 8 0 12 5 9 10 -4 6 -11 7 -17 4 -6 -4 -8 -2 -5
4 4 5 17 8 29 4 l21 -5 -21 -18 c-12 -9 -22 -23 -22 -31 1 -9 4 -7 11 4 7 14
20 16 64 13 48 -3 56 -1 66 17 8 14 13 17 18 9 6 -9 20 -9 57 -1 27 7 58 13
69 16 130 26 148 29 250 41 28 3 137 6 244 7 l195 1 7 27 c5 19 3 31 -7 39 -8
7 -12 20 -9 30 3 9 1 21 -6 24 -11 8 -357 14 -364 7z m-685 -205 c0 -12 -15
-13 -68 -8 -26 2 -3 16 32 18 24 2 36 -1 36 -10z"/>
<path d="M4017 6053 c-6 -10 -1 -59 8 -72 3 -6 16 -11 29 -11 13 0 31 -9 41
-20 10 -11 22 -17 28 -13 6 4 3 11 -7 19 -10 7 -15 17 -12 22 3 5 -14 26 -38
46 -25 20 -47 33 -49 29z"/>
<path d="M4147 6010 c3 -11 9 -17 14 -15 10 7 1 35 -11 35 -5 0 -6 -9 -3 -20z"/>
<path d="M4287 5960 c3 -30 7 -58 10 -62 2 -5 2 -8 -2 -8 -3 0 -10 10 -14 23
-8 20 -10 20 -16 4 -9 -21 -8 -22 24 -32 22 -7 23 -5 17 19 -6 26 11 39 18 14
12 -40 17 -50 21 -46 8 8 -21 83 -31 81 -5 -2 -14 12 -21 30 -11 30 -11 28 -6
-23z"/>
<path d="M4198 5978 c12 -12 24 -19 27 -16 8 7 -23 38 -38 38 -6 0 -2 -10 11
-22z"/>
<path d="M4330 5985 c0 -8 5 -15 10 -15 6 0 10 7 10 15 0 8 -4 15 -10 15 -5 0
-10 -7 -10 -15z"/>
<path d="M4490 5954 c0 -3 7 -12 15 -20 16 -16 31 -81 21 -91 -3 -4 -12 1 -19
11 -10 14 -18 15 -39 7 -21 -8 -28 -7 -33 7 -5 13 -8 14 -14 3 -5 -7 -14 -10
-20 -7 -6 4 -11 3 -11 -3 0 -6 12 -13 28 -17 22 -4 110 -37 274 -103 5 -1 7
17 4 40 l-4 44 11 -37 c6 -21 14 -38 19 -38 4 0 3 12 -3 27 -6 18 -6 30 0 36
14 14 51 16 51 3 0 -6 3 -21 6 -34 5 -18 3 -21 -12 -16 -18 5 -18 5 -1 -6 14
-9 17 -19 12 -38 -4 -15 -3 -24 1 -20 4 5 13 -1 20 -11 13 -18 54 -35 54 -22
0 3 -9 15 -21 24 -26 22 -19 33 11 17 12 -6 28 -27 36 -47 9 -19 17 -33 20
-30 3 3 -7 31 -21 62 -15 31 -24 59 -20 63 12 12 55 -82 55 -120 0 -24 38 -44
54 -27 8 9 8 10 -4 4 -13 -8 -13 -6 -2 7 7 9 9 19 5 21 -13 8 -15 67 -3 67 5
0 10 6 10 13 0 18 -130 93 -138 80 -13 -19 -42 -11 -42 12 0 15 -12 26 -42 40
-24 10 -61 26 -83 36 -70 30 -175 68 -175 63z"/>
<path d="M4350 5945 c0 -15 18 -40 24 -34 3 3 -1 14 -9 25 -8 10 -14 15 -15 9z"/>
<path d="M4950 5881 c0 -5 7 -14 15 -21 9 -7 14 -19 11 -25 -7 -19 49 -56 63
-42 8 8 11 7 11 -5 0 -8 7 -22 16 -29 15 -12 16 -10 9 21 -4 19 -17 43 -28 52
-33 26 -97 58 -97 49z"/>
<path d="M2730 5840 c0 -5 7 -10 15 -10 9 0 12 -6 9 -15 -4 -10 -13 -13 -25
-10 -19 6 -23 -2 -13 -28 4 -12 10 -12 29 -3 29 13 37 37 20 59 -13 19 -35 23
-35 7z"/>
<path d="M2670 5814 c-34 -18 -60 -52 -53 -69 3 -9 -1 -15 -11 -15 -9 0 -16
-4 -16 -10 0 -5 -9 -10 -20 -10 -14 0 -20 7 -20 23 0 12 -4 17 -8 11 -4 -6
-22 -19 -39 -29 -18 -11 -33 -26 -33 -33 0 -8 -6 -12 -14 -9 -10 4 -12 0 -9
-14 5 -19 7 -19 33 6 18 17 30 23 34 16 4 -6 2 -11 -4 -11 -6 0 -8 -4 -5 -10
3 -5 1 -10 -4 -10 -6 0 -11 -8 -11 -18 0 -10 -5 -23 -11 -29 -8 -8 -8 -13 1
-18 7 -4 14 1 17 14 3 12 10 21 17 21 6 0 19 11 28 25 16 21 16 25 2 39 -14
15 -14 16 1 16 8 0 18 -7 21 -15 5 -12 12 -9 36 14 19 19 28 36 25 45 -7 18
31 59 49 52 7 -3 20 4 30 15 21 23 3 25 -36 3z"/>
<path d="M3516 5821 c-3 -5 -22 -12 -43 -16 -40 -7 -103 -50 -103 -70 0 -8 9
-10 25 -7 18 3 25 0 25 -12 0 -9 -8 -16 -21 -16 -13 0 -18 -4 -13 -12 6 -10 5
-10 -7 -1 -28 23 -43 -1 -43 -69 0 -120 28 -168 126 -217 33 -17 122 -10 166
13 34 18 83 73 90 103 3 10 5 50 6 89 0 63 -3 78 -29 119 -17 27 -39 53 -50
59 -11 6 -22 14 -25 17 -3 4 -21 9 -41 12 -20 2 -42 7 -47 11 -6 3 -13 2 -16
-3z m85 -128 c40 -65 35 -167 -12 -208 -11 -10 -35 -18 -54 -18 -86 0 -139
150 -82 234 40 59 109 55 148 -8z"/>
<path d="M3976 5811 c-9 -4 -18 -11 -19 -16 -3 -14 -68 -16 -84 -3 -11 8 -12
7 -7 -6 4 -12 0 -16 -15 -16 -13 0 -21 -7 -22 -17 0 -10 -2 -27 -4 -38 -2 -11
-7 -45 -10 -75 -3 -30 -8 -82 -11 -115 -12 -117 -15 -110 39 -113 l47 -3 1 38
c5 120 11 133 58 113 29 -12 40 -34 47 -100 4 -34 9 -59 15 -64 2 -2 23 -6 47
-9 49 -5 49 -6 27 97 -8 38 -21 76 -29 85 -13 15 -11 19 19 40 56 38 60 122 8
167 -30 26 -82 43 -107 35z m33 -85 c36 -33 5 -96 -46 -96 -41 0 -51 11 -48
50 2 19 3 43 4 52 1 23 63 19 90 -6z"/>
<path d="M3885 5800 c3 -5 10 -10 16 -10 5 0 9 5 9 10 0 6 -7 10 -16 10 -8 0
-12 -4 -9 -10z"/>
<path d="M5095 5773 c3 -16 11 -31 16 -36 5 -4 7 -4 4 -1 -3 4 0 13 6 21 9 10
8 17 -1 28 -20 24 -33 18 -25 -12z"/>
<path d="M2565 5750 c-3 -5 -1 -10 4 -10 6 0 11 5 11 10 0 6 -2 10 -4 10 -3 0
-8 -4 -11 -10z"/>
<path d="M2650 5739 c0 -5 5 -7 10 -4 6 3 10 8 10 11 0 2 -4 4 -10 4 -5 0 -10
-5 -10 -11z"/>
<path d="M5132 5718 c2 -6 10 -14 16 -16 7 -2 10 2 6 12 -7 18 -28 22 -22 4z"/>
<path d="M5195 5699 c2 -26 27 -58 47 -59 11 0 0 40 -17 66 -21 33 -33 30 -30
-7z"/>
<path d="M4309 5711 c-46 -15 -86 -52 -115 -104 -52 -95 -31 -202 49 -259 18
-13 34 -23 37 -24 3 0 17 -6 31 -12 25 -10 45 -14 121 -26 16 -3 32 1 39 10 6
8 9 14 6 14 -2 0 10 40 28 89 l32 90 -56 20 c-83 30 -93 30 -103 -1 -7 -21 -6
-32 5 -42 8 -8 17 -12 21 -9 3 3 8 -2 12 -11 8 -21 -15 -76 -32 -76 -40 0
-112 56 -115 90 -1 8 -3 25 -4 37 -3 34 29 98 61 120 16 10 44 20 62 21 37 3
132 -35 132 -52 0 -6 11 2 25 18 14 16 25 35 25 42 0 7 -26 25 -57 40 -61 28
-157 40 -204 25z"/>
<path d="M4990 5689 c0 -17 4 -28 10 -24 5 3 6 13 3 22 -4 11 -3 14 5 9 7 -4
12 -16 12 -27 0 -10 5 -19 10 -19 22 0 1 53 -25 64 -11 4 -15 -2 -15 -25z"/>
<path d="M2215 5662 c-19 -16 -25 -27 -17 -30 6 -2 12 -11 12 -19 0 -9 3 -13
7 -9 7 7 33 79 30 82 -1 1 -15 -9 -32 -24z"/>
<path d="M2251 5648 c-14 -23 -2 -23 29 2 24 18 24 19 4 17 -12 0 -27 -9 -33
-19z"/>
<path d="M5055 5653 c-5 -14 -13 -20 -23 -17 -14 5 -14 4 1 -6 24 -16 47 0 36
25 -8 20 -8 19 -14 -2z"/>
<path d="M2405 5631 c2 -9 4 -24 4 -34 1 -29 21 -9 21 22 0 17 -5 28 -14 28
-7 0 -12 -7 -11 -16z"/>
<path d="M2912 5641 c-14 -8 -15 -23 -26 -328 -5 -131 1 -160 27 -134 13 13
12 8 21 240 4 96 7 177 8 180 0 3 0 16 -1 29 -1 24 -8 27 -29 13z"/>
<path d="M5097 5630 c-3 -11 -1 -23 4 -26 5 -3 9 0 9 5 0 6 5 11 12 11 6 0 9
-3 5 -6 -3 -3 -1 -18 5 -33 5 -14 12 -42 14 -61 8 -60 10 -69 17 -76 4 -4 7
-2 7 5 0 7 5 9 10 6 6 -3 10 -15 10 -26 0 -18 11 -24 35 -19 5 1 7 -2 2 -6 -7
-8 40 -64 55 -64 4 0 8 7 8 16 0 8 5 12 10 9 6 -3 10 -18 10 -33 0 -18 14 -40
40 -66 l40 -40 31 23 c18 13 41 21 56 19 42 -5 37 15 -12 61 -36 33 -51 41
-68 36 -12 -4 -35 -9 -51 -12 -25 -5 -28 -3 -22 13 9 22 9 22 7 54 -1 14 -6
32 -11 40 -9 13 -12 12 -25 -4 -15 -20 -15 -20 -16 0 0 10 -3 13 -6 7 -2 -7
-8 -13 -13 -13 -9 0 -7 41 3 57 4 6 -2 18 -13 28 -11 10 -20 13 -20 7 0 -6 5
-14 10 -17 6 -3 10 -14 10 -23 0 -26 -23 3 -36 46 -7 22 -12 29 -13 17 -1 -18
37 -124 49 -135 3 -3 7 -16 8 -30 2 -14 0 -21 -5 -17 -4 5 -9 13 -9 18 -1 5
-2 13 -3 19 0 6 -6 9 -13 8 -16 -4 -55 71 -63 119 -9 59 -14 70 -39 87 -22 14
-24 14 -29 -4z"/>
<path d="M2370 5622 c0 -4 -10 -12 -22 -17 -29 -13 -33 -31 -8 -31 13 0 19 5
16 13 -3 7 -2 13 3 13 15 0 20 -13 11 -31 -7 -12 -7 -20 0 -24 6 -4 10 -3 9 2
-1 4 2 17 6 27 6 13 4 21 -4 24 -9 3 -9 7 0 18 8 10 8 14 0 14 -6 0 -11 -3
-11 -8z"/>
<path d="M5030 5603 c0 -8 5 -11 10 -8 7 4 9 -3 5 -22 -4 -20 -3 -22 3 -9 8
17 10 17 31 -10 15 -20 19 -22 11 -6 -6 12 -8 22 -4 22 3 0 2 6 -4 13 -6 6
-12 16 -14 22 -5 15 -38 13 -38 -2z"/>
<path d="M5338 5608 c7 -7 12 -21 12 -32 -1 -20 -2 -20 -14 -4 -7 10 -16 15
-19 11 -6 -6 21 -32 34 -33 4 0 9 11 11 24 5 25 -7 46 -26 46 -6 0 -5 -5 2
-12z"/>
<path d="M4968 5583 c7 -3 16 -2 19 1 4 3 -2 6 -13 5 -11 0 -14 -3 -6 -6z"/>
<path d="M5388 5541 c2 -15 12 -38 23 -51 l19 -25 -2 42 c-1 32 -6 43 -23 51
-19 9 -21 7 -17 -17z"/>
<path d="M2283 5542 c0 -12 5 -22 9 -22 11 0 10 12 -2 30 -7 12 -9 10 -7 -8z"/>
<path d="M2413 5525 c0 -31 8 -32 26 -2 7 12 10 19 6 15 -5 -4 -14 -3 -20 2
-9 8 -12 4 -12 -15z"/>
<path d="M2710 5524 c-19 -12 -41 -23 -47 -23 -7 -1 -13 -10 -13 -22 0 -11 -4
-28 -9 -37 -24 -45 29 -128 91 -141 41 -10 85 10 112 51 35 54 -7 163 -71 186
-23 7 -34 5 -63 -14z m48 -56 c30 -33 44 -75 32 -98 -28 -53 -116 49 -88 103
12 23 30 22 56 -5z"/>
<path d="M2348 5522 c-2 -9 -1 -30 3 -47 7 -31 8 -30 15 22 4 34 -11 55 -18
25z"/>
<path d="M4788 5531 c-1 -4 -55 -53 -120 -108 -201 -173 -197 -167 -137 -198
26 -14 31 -14 44 -1 8 8 15 18 15 23 0 5 14 24 31 43 28 32 29 32 14 6 -15
-24 -15 -28 -2 -23 8 3 25 -2 37 -10 13 -9 36 -16 53 -15 17 0 27 -2 22 -6 -6
-4 -11 -24 -12 -44 -2 -52 27 -61 70 -21 18 15 33 28 34 29 1 0 10 29 19 63
12 49 13 65 4 71 -7 4 -9 13 -6 19 4 6 11 9 16 6 8 -5 40 82 40 106 0 8 -96
69 -109 69 -5 0 -11 -4 -13 -9z m5 -163 c-13 -39 -25 -74 -27 -76 -3 -2 -20 7
-40 20 l-35 24 42 34 c22 19 48 43 56 53 27 30 28 19 4 -55z"/>
<path d="M2244 5505 c10 -40 24 -52 24 -21 0 14 -7 31 -16 38 -13 11 -14 9 -8
-17z"/>
<path d="M3044 5519 c-48 -13 -78 -52 -78 -102 0 -51 36 -111 76 -128 37 -15
90 -4 117 25 62 66 16 197 -74 211 -5 1 -24 -2 -41 -6z m63 -94 c27 -48 28
-59 7 -79 -12 -12 -20 -13 -35 -6 -39 21 -66 111 -36 123 25 11 42 1 64 -38z"/>
<path d="M2319 5518 c-4 -11 -5 -57 0 -53 7 8 13 55 6 55 -3 0 -5 -1 -6 -2z"/>
<path d="M2390 5499 c0 -11 4 -18 10 -14 5 3 7 12 3 20 -7 21 -13 19 -13 -6z"/>
<path d="M2080 5488 c-12 -22 -12 -22 6 -6 10 10 15 20 12 24 -4 3 -12 -5 -18
-18z"/>
<path d="M5447 5488 c-7 -25 12 -56 23 -38 11 17 7 53 -6 57 -6 2 -14 -6 -17
-19z"/>
<path d="M2200 5488 c0 -8 6 -21 14 -27 11 -10 14 -9 12 4 -1 8 -8 21 -14 27
-9 9 -12 8 -12 -4z"/>
<path d="M5490 5473 c5 -2 8 -9 4 -14 -3 -5 0 -9 6 -9 15 0 7 23 -8 26 -7 1
-8 0 -2 -3z"/>
<path d="M2211 5419 c-10 -17 -10 -23 -1 -29 9 -6 9 -9 1 -13 -8 -4 -8 -5 1
-3 6 1 13 17 15 34 5 38 2 39 -16 11z"/>
<path d="M5530 5427 c0 -14 -5 -17 -21 -12 l-22 7 22 -31 c22 -31 40 -46 45
-40 16 18 14 49 -3 70 -18 21 -20 22 -21 6z"/>
<path d="M2140 5410 c-9 -16 -8 -20 5 -20 8 0 15 9 15 20 0 11 -2 20 -5 20 -2
0 -9 -9 -15 -20z"/>
<path d="M1960 5403 c0 -5 5 -15 10 -23 7 -12 9 -10 7 8 -1 19 -17 33 -17 15z"/>
<path d="M2242 5388 c1 -16 6 -28 10 -28 11 0 10 22 -2 40 -8 11 -9 9 -8 -12z"/>
<path d="M2131 5364 c0 -11 3 -14 6 -6 3 7 2 16 -1 19 -3 4 -6 -2 -5 -13z"/>
<path d="M1900 5350 c-13 -8 -12 -10 3 -10 9 0 17 5 17 10 0 12 -1 12 -20 0z"/>
<path d="M2195 5337 c-5 -20 -10 -25 -16 -16 -4 7 -5 17 -3 21 3 4 -1 5 -9 2
-15 -5 -11 -54 4 -54 13 0 41 48 36 62 -2 7 -8 0 -12 -15z"/>
<path d="M2081 5324 c-6 -14 -11 -34 -11 -45 0 -12 -4 -17 -11 -13 -12 7 -3
-33 12 -51 4 -6 4 -17 0 -24 -7 -11 -11 -9 -21 8 -8 16 -15 19 -23 12 -7 -5
-32 -11 -57 -13 -42 -3 -48 -7 -93 -65 -79 -103 -167 -250 -234 -390 -35 -72
-63 -136 -63 -142 0 -6 -4 -19 -10 -29 -16 -29 -60 -162 -54 -162 4 0 1 -6 -5
-14 -6 -8 -11 -18 -10 -22 1 -5 -1 -16 -4 -24 -7 -19 -33 -132 -42 -185 -4
-22 -9 -51 -12 -65 -12 -65 -26 -240 -26 -330 0 -95 5 -213 10 -226 3 -7 20
-11 42 -9 44 4 72 -24 45 -46 -12 -10 -13 -9 -8 4 4 11 0 15 -12 13 -20 -3
-46 -35 -38 -47 3 -5 0 -9 -5 -9 -6 0 -11 -4 -11 -9 0 -5 8 -7 19 -4 13 3 17
11 13 25 -5 20 -4 20 16 2 16 -14 19 -20 9 -27 -8 -6 -4 -7 11 -4 17 4 22 1
22 -14 0 -10 5 -19 10 -19 7 0 7 -7 0 -21 -7 -11 -9 -27 -6 -35 3 -8 -1 -17
-9 -20 -16 -6 -11 -24 6 -24 6 0 7 5 4 10 -3 6 -2 10 3 10 5 0 12 -11 15 -25
4 -22 -1 -28 -27 -39 -17 -7 -32 -12 -34 -11 -8 7 13 35 27 36 12 0 12 2 2 6
-17 7 -45 36 -49 51 -2 11 10 16 29 14 4 -1 9 10 11 23 4 21 3 23 -13 14 -15
-8 -17 -6 -12 8 6 16 5 17 -12 3 -14 -11 -17 -12 -11 -1 6 9 5 12 -4 9 -23 -7
-20 -38 3 -38 19 0 19 -1 4 -12 -15 -12 -15 -18 0 -78 8 -36 16 -72 18 -80 1
-8 10 -14 19 -14 19 2 21 -7 4 -24 -12 -12 -10 -13 12 -16 6 0 9 -4 8 -8 -2
-4 6 -14 17 -23 19 -16 19 -16 -12 -11 l-32 5 25 -72 c83 -238 170 -419 278
-577 69 -101 99 -142 113 -157 7 -8 29 -35 50 -60 56 -69 172 -190 211 -220
l34 -25 39 38 c25 24 37 32 33 20 -5 -13 -4 -17 4 -12 8 5 10 1 5 -10 -4 -12
-3 -15 5 -10 7 4 12 2 12 -4 0 -7 -8 -9 -20 -5 -16 5 -20 2 -20 -19 0 -14 -5
-26 -11 -26 -5 0 -7 5 -4 10 3 5 1 10 -5 10 -7 0 -10 -6 -7 -12 2 -7 14 -12
27 -10 18 2 21 -2 17 -19 -5 -17 -3 -19 6 -10 6 6 12 19 12 28 0 9 6 18 14 21
8 3 11 0 7 -7 -4 -6 -2 -11 3 -11 6 0 11 8 12 18 0 10 3 12 6 4 2 -6 10 -9 16
-5 7 4 8 0 3 -13 -6 -15 -4 -16 5 -7 9 9 15 8 26 -3 14 -14 10 -34 -7 -34 -5
0 -7 8 -3 18 6 15 4 15 -15 -2 -12 -11 -25 -17 -28 -13 -3 3 -12 1 -18 -6 -18
-16 3 -40 22 -25 9 8 11 7 7 -4 -5 -14 36 -58 55 -58 5 0 15 9 23 20 8 11 17
17 21 13 4 -4 3 5 -3 20 -12 31 -6 34 20 12 14 -13 15 -20 5 -40 -11 -26 -26
-33 -26 -14 0 8 -5 8 -15 -1 -17 -14 -9 -34 11 -26 8 3 14 -1 14 -9 0 -21 32
-35 53 -24 13 8 17 7 15 -2 -2 -9 9 -13 34 -12 28 1 35 -2 31 -13 -3 -8 -11
-14 -19 -14 -8 0 -14 -4 -14 -10 0 -5 4 -10 10 -10 5 0 31 -13 57 -28 107 -62
381 -176 476 -198 9 -2 25 -6 35 -9 42 -12 201 -46 236 -50 21 -3 52 -8 70
-11 59 -11 121 -12 132 -3 6 5 10 25 9 44 -2 19 1 35 6 35 10 0 11 -6 13 -59
l1 -34 62 -2 c52 -1 62 1 66 17 7 23 39 24 35 0 -3 -15 6 -17 82 -15 138 3
133 1 144 68 2 11 5 21 6 23 1 1 3 6 4 11 0 5 4 13 9 17 11 11 8 26 -4 18 -6
-3 -68 -8 -138 -9 -69 -2 -137 -4 -150 -4 -19 -1 -23 -5 -19 -26 3 -14 1 -25
-3 -25 -5 0 -9 14 -9 31 0 31 -23 38 -26 8 -1 -8 -3 -18 -4 -24 -1 -5 -1 -19
0 -30 1 -19 1 -19 -14 2 -9 11 -20 32 -25 46 -8 21 -16 26 -48 26 -21 -1 -51
2 -68 4 -16 3 -50 8 -75 12 -73 11 -91 14 -180 35 -102 24 -133 32 -160 43 -8
3 -35 12 -60 21 -180 58 -457 203 -580 302 -8 7 -42 34 -75 61 -305 243 -532
553 -679 925 -25 65 -46 126 -46 136 0 10 -4 22 -9 28 -5 5 -17 45 -27 89 -9
44 -19 85 -20 90 -2 11 -11 56 -20 108 -21 122 -33 454 -19 526 2 14 7 50 9
80 6 70 40 248 62 321 49 169 150 404 236 553 21 36 21 37 2 51 -10 8 -22 12
-26 10 -5 -3 -8 0 -8 6 0 6 14 8 38 5 36 -6 38 -5 77 52 22 32 68 93 102 135
59 73 74 98 55 98 -4 0 -13 -5 -19 -11 -17 -17 -11 9 11 46 17 29 17 30 13 4
-2 -16 1 -26 9 -26 13 0 14 31 1 43 -4 4 -7 15 -7 25 0 29 -16 30 -29 3z m352
-3416 c7 -27 7 -28 -28 -34 -19 -3 -24 -1 -19 7 5 9 2 10 -10 6 -14 -5 -15 -3
-6 12 18 35 55 40 63 9z m1281 -437 c3 -5 -1 -14 -9 -21 -13 -10 -15 -9 -15 9
0 21 14 28 24 12z"/>
<path d="M2428 5333 c-15 -8 -40 -30 -55 -50 -49 -63 -30 -152 51 -242 112
-125 282 -87 280 63 -1 134 -176 278 -276 229z m116 -117 c41 -41 73 -92 80
-123 6 -26 4 -34 -14 -43 -28 -15 -54 -5 -99 38 -80 78 -103 130 -70 163 18
18 21 18 51 3 17 -9 40 -26 52 -38z"/>
<path d="M2040 5330 c0 -13 18 -22 24 -11 3 5 -1 11 -9 15 -8 3 -15 1 -15 -4z"/>
<path d="M1890 5307 c0 -19 4 -25 15 -21 8 4 15 10 15 14 0 4 -7 13 -15 20
-13 11 -15 8 -15 -13z"/>
<path d="M4971 5182 c-77 -76 -141 -143 -141 -148 0 -9 24 -33 48 -48 8 -5 48
28 112 93 98 98 110 106 91 59 -11 -27 -23 -63 -21 -63 1 0 -4 -13 -10 -30 -7
-16 -13 -37 -16 -45 -2 -8 -11 -43 -21 -78 l-17 -62 35 -34 35 -34 147 146
148 146 -31 30 -31 31 -100 -102 c-55 -56 -98 -95 -95 -88 12 31 55 164 74
225 l20 65 -36 38 c-20 20 -39 37 -43 37 -3 0 -70 -62 -148 -138z"/>
<path d="M1867 5296 c-4 -9 -11 -15 -16 -11 -5 3 -12 2 -15 -3 -3 -5 0 -9 7
-9 7 0 20 -4 30 -8 18 -8 20 -1 8 29 -7 18 -8 18 -14 2z"/>
<path d="M2030 5291 c0 -5 -3 -16 -6 -25 -3 -9 -2 -16 4 -16 13 0 23 38 11 46
-5 3 -9 1 -9 -5z"/>
<path d="M3638 5294 c-2 -1 -28 -5 -58 -9 -56 -6 -67 -8 -134 -20 -65 -11
-219 -62 -311 -101 -72 -31 -86 -40 -81 -56 20 -61 20 -59 -5 -56 -34 5 -51
18 -45 34 18 47 -206 -112 -335 -237 -135 -132 -251 -291 -318 -439 -18 -41
-39 -86 -46 -100 -10 -21 -11 -39 -6 -93 1 -5 6 -5 11 -2 6 3 13 -1 17 -10 3
-10 0 -21 -7 -25 -7 -4 -9 -16 -5 -29 9 -30 21 -26 30 12 11 47 11 46 44 125
57 137 135 268 228 382 93 115 273 270 388 335 28 16 58 35 69 44 10 9 21 15
25 15 3 -1 24 7 46 17 103 47 253 94 336 105 24 3 61 9 82 14 69 15 382 4 467
-15 14 -4 39 -8 55 -11 64 -11 239 -76 333 -123 96 -48 211 -123 280 -183 29
-25 36 -27 50 -16 15 11 15 11 4 -4 -10 -12 -10 -18 -1 -23 6 -4 15 -1 20 6 4
7 11 10 15 6 4 -4 3 -12 -4 -19 -8 -8 4 -28 50 -77 83 -91 189 -245 242 -355
43 -89 100 -244 111 -302 7 -38 14 -73 20 -104 23 -106 23 -405 0 -472 -2 -7
-6 -26 -9 -43 -11 -70 -62 -243 -77 -261 -5 -6 -6 -14 -2 -17 3 -4 0 -7 -7 -7
-7 0 -11 -3 -7 -6 6 -6 -63 -147 -75 -152 -4 -2 -8 -8 -8 -14 0 -12 -92 -146
-135 -197 -150 -179 -369 -341 -576 -426 -57 -23 -77 -30 -114 -38 -5 -2 -14
-5 -20 -9 -5 -3 -37 -12 -70 -19 -33 -7 -62 -13 -65 -14 -3 -1 -32 -5 -65 -9
-33 -5 -69 -10 -80 -12 -11 -3 -68 -5 -127 -5 -62 -1 -108 -5 -108 -11 0 -5 4
-7 9 -4 13 8 45 -20 37 -32 -4 -7 -16 -12 -27 -12 -12 0 -19 -5 -16 -12 4 -15
155 -17 267 -4 578 64 1108 486 1295 1031 15 44 29 90 31 102 2 12 9 34 14 48
5 14 8 25 5 25 -2 0 0 14 5 31 24 82 35 380 18 489 -20 133 -38 218 -55 260
-4 8 -7 17 -8 20 -16 59 -106 260 -117 260 -4 0 -8 9 -8 19 0 12 -9 21 -26 25
-20 5 -24 11 -19 27 4 13 2 19 -7 17 -7 -2 -12 2 -11 8 1 7 -8 9 -24 6 -17 -3
-24 -1 -19 6 3 6 -3 13 -14 17 -11 3 -20 11 -20 17 0 6 8 7 18 3 9 -3 19 -7
22 -8 6 -2 10 8 10 24 0 8 -6 7 -17 -2 -15 -13 -16 -11 -10 19 7 36 5 39 -18
16 -18 -18 -32 -13 -19 8 12 18 12 31 1 45 -12 17 -27 7 -27 -17 0 -13 -5 -17
-15 -14 -8 4 -15 12 -15 20 0 7 -11 16 -25 20 -18 4 -25 13 -25 31 0 17 -4 23
-14 20 -7 -3 -20 3 -30 14 -20 24 -21 36 -1 19 19 -15 28 -9 19 14 -3 9 -11
13 -18 9 -6 -3 -6 -1 2 8 19 20 14 31 -9 19 -27 -15 -40 -3 -16 15 17 12 14
17 -38 61 -174 151 -425 275 -650 323 -27 6 -63 13 -80 17 -57 12 -88 13 -76
1 16 -16 13 -27 -4 -21 -11 5 -14 1 -9 -12 5 -18 5 -18 -10 0 -8 10 -13 22
-11 27 11 17 -24 23 -142 24 -67 1 -124 1 -125 -1z m-538 -216 c0 -5 -7 -3
-15 6 -8 8 -15 18 -15 22 0 3 7 1 15 -6 8 -7 15 -17 15 -22z m-750 -858 c0 -5
-2 -10 -4 -10 -3 0 -8 5 -11 10 -3 6 -1 10 4 10 6 0 11 -4 11 -10z"/>
<path d="M5650 5281 c0 -23 25 -61 36 -57 9 3 14 -8 16 -36 2 -24 9 -43 17
-46 8 -3 11 0 7 7 -4 6 -3 19 3 28 7 13 4 25 -11 45 -11 16 -24 26 -29 23 -5
-4 -7 0 -4 7 3 7 -4 19 -15 26 -11 7 -20 8 -20 3z"/>
<path d="M1966 5245 c-3 -8 -1 -15 4 -15 13 0 22 18 11 24 -5 3 -11 -1 -15 -9z"/>
<path d="M1720 5129 c-72 -106 -75 -114 -40 -115 20 -1 32 6 45 30 10 17 21
33 24 36 3 3 25 32 48 66 l41 61 -31 1 c-29 1 -37 -6 -87 -79z"/>
<path d="M5670 5200 c0 -5 5 -10 10 -10 6 0 10 5 10 10 0 6 -4 10 -10 10 -5 0
-10 -4 -10 -10z"/>
<path d="M3583 5157 c-42 -8 -53 -14 -53 -28 0 -11 -6 -19 -14 -19 -7 0 -18
-6 -24 -13 -8 -10 -6 -13 10 -14 37 -3 39 -18 3 -25 -11 -1 -23 -7 -27 -13 -5
-6 -8 -5 -8 2 0 9 -7 10 -25 3 -19 -7 -26 -6 -34 7 -7 14 -12 15 -25 4 -8 -7
-20 -10 -26 -6 -6 4 -17 1 -25 -5 -11 -9 -15 -9 -15 -1 0 8 -6 9 -18 2 -9 -5
-40 -7 -67 -4 -33 3 -45 1 -37 -5 11 -7 7 -11 -15 -18 -15 -4 -38 -8 -50 -8
-15 0 -20 -5 -17 -19 2 -15 0 -16 -10 -8 -10 8 -21 7 -42 -4 -24 -12 -28 -20
-26 -48 3 -25 -1 -36 -14 -41 -9 -4 -20 -3 -23 0 -3 4 0 9 7 11 13 5 17 39 4
47 -9 6 -102 -80 -102 -94 0 -6 -6 -9 -12 -8 -7 2 -12 -4 -10 -13 1 -9 -4 -19
-13 -23 -8 -3 -15 -12 -15 -20 0 -8 -3 -16 -7 -18 -5 -1 -23 -20 -40 -41 -18
-21 -33 -34 -33 -30 0 4 -5 1 -10 -7 -9 -13 -11 -13 -20 0 -7 11 -3 21 13 37
12 13 33 34 47 48 15 15 19 25 11 25 -36 0 -237 -240 -313 -375 -73 -128 -147
-332 -162 -445 -3 -19 -8 -55 -12 -80 -13 -75 -7 -299 11 -400 36 -211 129
-426 260 -605 72 -96 88 -110 113 -94 18 11 24 10 41 -5 25 -23 17 -40 -15
-33 -13 2 -24 2 -24 -1 0 -3 33 -36 72 -74 55 -52 78 -68 93 -63 11 3 46 8 78
11 50 6 57 5 51 -10 -3 -9 -11 -16 -16 -16 -6 0 -7 -7 -4 -16 4 -11 -1 -18
-14 -21 -11 -3 -20 -9 -20 -12 0 -15 81 -60 97 -54 11 4 14 3 9 -5 -5 -8 24
-27 86 -56 131 -62 223 -91 348 -112 19 -3 39 -8 43 -11 16 -10 312 -11 375
-2 388 56 710 234 948 524 45 54 114 159 114 172 0 13 -49 -48 -73 -89 -20
-37 -42 -53 -31 -23 4 8 10 15 15 15 5 0 9 7 9 15 0 9 16 39 35 68 19 28 35
48 35 43 0 -5 6 -3 13 3 8 6 16 8 19 6 5 -6 40 61 77 148 22 50 20 67 -5 67
-8 0 -14 5 -14 11 0 6 9 9 20 6 13 -3 20 0 20 8 0 7 4 15 9 17 13 5 25 68 12
68 -6 0 -11 5 -11 10 0 6 7 10 15 10 8 0 18 16 24 38 35 138 40 306 16 504 -8
60 -23 85 -31 50 -4 -12 -10 -22 -15 -22 -5 0 -9 -6 -9 -13 0 -6 -16 -27 -35
-44 -19 -18 -35 -36 -35 -40 0 -4 -11 -15 -23 -24 -22 -16 -23 -16 -23 5 0 11
7 28 15 36 38 37 63 69 65 85 1 9 8 20 15 24 7 5 13 16 15 25 1 10 8 21 16 26
15 9 9 62 -16 137 -29 89 -107 251 -137 283 -9 11 -17 22 -17 25 1 20 -2 24
-20 22 -11 -1 -20 -5 -20 -9 0 -12 -28 -10 -35 2 -3 6 6 15 20 20 14 5 23 15
20 20 -5 7 -11 8 -19 1 -6 -5 -25 -15 -41 -21 -24 -9 -28 -9 -17 1 17 18 15
30 -4 27 -29 -5 -25 16 7 34 l30 18 -21 29 c-12 18 -27 28 -35 25 -7 -3 -22
-1 -32 4 -17 10 -17 11 -1 17 9 4 14 13 11 21 -5 13 -8 12 -24 -2 -11 -10 -19
-12 -19 -6 0 7 -7 12 -17 12 -15 0 -15 1 0 18 19 20 13 34 -9 25 -9 -3 -14 2
-14 13 0 11 -4 15 -8 9 -4 -5 -16 -17 -26 -25 -18 -14 -18 -13 -11 9 6 19 4
23 -8 18 -27 -10 -37 13 -15 35 27 27 5 42 -33 22 -16 -8 -30 -10 -34 -5 -3 5
5 11 17 13 38 5 28 33 -11 31 -28 -2 -32 1 -28 16 3 14 -1 19 -22 19 -14 0
-32 -5 -40 -12 -10 -8 -10 -2 3 22 17 32 13 37 -22 33 -7 -1 -15 5 -18 13 -3
9 -10 13 -15 10 -5 -3 -9 0 -9 7 0 7 -8 5 -21 -7 -20 -18 -20 -18 -14 9 9 33
8 33 -51 5 -38 -18 -48 -20 -52 -9 -2 7 -14 23 -25 34 -16 16 -18 23 -8 38 9
16 8 19 -6 19 -10 0 -33 -9 -51 -20 -27 -17 -34 -18 -38 -6 -3 8 -3 19 0 24
15 24 -39 48 -154 68 -8 2 -31 6 -50 10 -56 11 -320 11 -377 1z m-733 -2467
c0 -5 -4 -10 -10 -10 -5 0 -10 5 -10 10 0 6 5 10 10 10 6 0 10 -4 10 -10z"/>
<path d="M4786 5139 c-15 -16 -32 -26 -37 -23 -5 3 -9 -1 -9 -8 0 -8 13 -22
30 -31 l29 -18 11 41 c6 23 14 48 17 56 8 22 -9 15 -41 -17z"/>
<path d="M5477 5143 c-8 -8 23 -61 40 -67 7 -3 13 1 13 9 0 18 -45 67 -53 58z"/>
<path d="M5740 5123 c0 -16 86 -153 96 -153 3 0 2 5 -1 10 -3 6 -1 10 5 10 14
0 3 45 -23 93 -12 22 -26 36 -34 33 -7 -3 -13 -1 -13 3 0 5 -7 11 -15 15 -10
3 -15 -1 -15 -11z"/>
<path d="M5569 5128 c-1 -5 -2 -11 -3 -15 -1 -5 -5 -14 -9 -21 -10 -15 2 -57
13 -46 14 14 19 59 9 75 -5 8 -9 11 -10 7z"/>
<path d="M3380 5100 c-11 -11 -20 -25 -20 -31 0 -6 9 -1 21 12 14 17 22 20 25
12 7 -17 24 -16 24 1 0 23 -29 27 -50 6z"/>
<path d="M3282 5085 c-18 -8 -31 -19 -27 -25 3 -5 8 -10 11 -10 3 0 2 5 -1 10
-4 6 7 13 24 16 17 4 31 10 31 15 0 11 2 11 -38 -6z"/>
<path d="M2192 5069 c-40 -8 -69 -33 -91 -79 -28 -57 -13 -117 48 -183 40 -43
141 -97 184 -97 69 0 127 53 134 124 6 55 -15 102 -69 152 -70 66 -145 96
-206 83z m63 -95 c72 -34 149 -119 138 -152 -11 -28 -41 -33 -86 -12 -53 25
-129 91 -133 114 -1 10 -5 20 -8 23 -3 3 -1 14 5 24 12 23 40 24 84 3z"/>
<path d="M5670 5060 c0 -6 11 -28 25 -50 14 -22 22 -40 18 -40 -5 0 -9 -44
-10 -97 -1 -83 2 -102 19 -125 10 -16 16 -28 13 -28 -4 0 -1 -10 8 -23 8 -12
29 -58 47 -101 30 -71 35 -77 57 -73 20 4 24 1 20 -14 -3 -10 0 -20 5 -21 6
-2 2 -10 -8 -18 -11 -9 -15 -10 -10 -2 4 7 2 12 -4 12 -7 0 -9 -8 -5 -21 4
-12 8 -27 9 -33 1 -6 7 -20 14 -31 12 -19 13 -18 9 7 -2 17 2 33 10 40 8 6 13
7 12 2 -1 -5 -1 -20 0 -34 2 -24 3 -24 18 8 9 17 20 32 25 32 14 0 1 -48 -26
-95 -13 -25 -23 -52 -21 -62 2 -10 4 -20 4 -22 1 -2 9 3 18 10 15 12 16 12 8
-1 -4 -8 -5 -12 -1 -8 4 3 16 21 26 40 10 18 24 32 33 30 8 -1 17 3 20 11 7
18 -36 151 -46 141 -4 -5 -12 -2 -17 6 -6 9 -5 17 3 22 14 8 2 46 -50 158 -78
168 -123 249 -123 223 0 -7 -13 -11 -29 -11 -25 1 -28 4 -24 32 2 17 6 38 9
48 3 9 -7 35 -22 57 -28 42 -34 48 -34 31z m230 -544 c0 -3 -4 -8 -10 -11 -5
-3 -10 -1 -10 4 0 6 5 11 10 11 6 0 10 -2 10 -4z"/>
<path d="M4323 5043 c-21 -8 -14 -26 7 -20 11 3 18 1 14 -4 -3 -5 -1 -9 5 -9
5 0 12 4 16 9 7 12 -25 30 -42 24z"/>
<path d="M5860 4993 c0 -12 5 -25 10 -28 13 -8 13 15 0 35 -8 12 -10 11 -10
-7z"/>
<path d="M1628 4983 c-24 -28 -142 -279 -178 -377 -30 -81 -31 -90 -15 -98 15
-9 15 -11 1 -21 -10 -8 -14 -20 -10 -34 9 -34 20 -28 32 17 5 23 6 40 1 40 -5
0 -9 4 -9 10 0 5 6 7 14 4 9 -3 16 5 21 23 17 70 160 379 192 415 13 15 12 18
-6 27 -25 14 -25 14 -43 -6z"/>
<path d="M5270 4855 c-91 -63 -166 -118 -168 -123 -1 -4 10 -22 25 -40 l28
-33 125 88 c69 48 145 101 168 117 23 16 42 31 42 35 0 3 -13 21 -28 39 l-27
32 -165 -115z"/>
<path d="M5868 4914 c-3 -3 13 -42 36 -87 40 -79 108 -239 121 -283 6 -22 30
-34 52 -27 12 4 -6 67 -42 149 -111 246 -113 249 -139 252 -13 1 -26 -1 -28
-4z"/>
<path d="M4656 4821 c-3 -5 1 -11 9 -15 15 -6 29 7 18 18 -9 9 -21 8 -27 -3z"/>
<path d="M5391 4723 c-92 -32 -158 -128 -145 -213 6 -43 48 -131 72 -153 16
-15 20 -14 50 4 29 19 30 22 15 37 -25 26 -54 99 -49 126 10 56 45 92 108 110
84 25 135 -12 172 -127 4 -13 12 -16 33 -11 42 10 45 16 27 72 -19 60 -70 123
-117 147 -44 23 -113 26 -166 8z"/>
<path d="M1915 4694 c-14 -34 -23 -129 -13 -139 2 -3 19 -8 36 -11 32 -6 32
-6 32 35 l0 41 137 -70 c75 -39 139 -70 143 -70 3 0 14 16 24 37 14 29 15 38
4 45 -15 10 -210 111 -218 113 -3 1 -28 13 -57 28 -29 15 -57 27 -63 27 -5 0
-16 -16 -25 -36z"/>
<path d="M6050 4481 c0 -17 4 -31 8 -31 12 0 37 49 29 57 -4 3 -7 1 -7 -7 0
-10 -3 -10 -15 0 -13 11 -15 8 -15 -19z"/>
<path d="M6085 4460 c-3 -5 -1 -10 5 -10 6 0 5 -9 -4 -22 -8 -13 -13 -32 -11
-43 2 -11 4 -24 4 -29 1 -4 8 -6 16 -2 18 6 20 -5 4 -21 -8 -8 -8 -17 -1 -29
9 -17 11 -16 17 9 4 15 11 27 17 27 5 0 7 8 5 18 -31 115 -37 126 -52 102z"/>
<path d="M1400 4421 c0 -6 4 -11 8 -11 5 0 7 -19 6 -42 -2 -30 0 -37 5 -23 13
33 23 80 15 73 -4 -4 -13 -3 -21 3 -9 9 -13 8 -13 0z"/>
<path d="M5887 4358 c-8 -30 -1 -35 12 -9 6 11 7 22 2 25 -5 3 -11 -4 -14 -16z"/>
<path d="M5996 4311 c-13 -14 -14 -20 -5 -23 10 -3 7 -15 -9 -42 -32 -54 -22
-55 16 -2 37 51 39 58 15 49 -16 -6 -16 -5 -4 10 19 24 8 31 -13 8z"/>
<path d="M6120 4291 c-7 -17 -10 -34 -6 -38 3 -3 6 -1 6 5 0 7 6 12 14 12 22
0 27 15 12 35 -11 16 -14 15 -26 -14z"/>
<path d="M1355 4260 c3 -5 12 -7 20 -3 21 7 19 13 -6 13 -11 0 -18 -4 -14 -10z"/>
<path d="M1354 4235 c-18 -14 -18 -14 9 -15 17 0 27 5 27 15 0 19 -11 19 -36
0z"/>
<path d="M6002 4229 c-12 -11 -20 -24 -17 -30 4 -5 -5 -9 -19 -9 -14 0 -26 -5
-26 -11 0 -5 4 -8 9 -4 16 10 22 -14 10 -37 -11 -20 -10 -22 3 -10 9 7 19 24
22 37 4 14 11 25 16 25 6 0 10 6 10 14 0 8 7 22 16 30 23 24 1 19 -24 -5z"/>
<path d="M6113 4225 c0 -9 4 -14 9 -13 5 2 10 8 10 13 0 5 -5 11 -10 13 -5 1
-9 -4 -9 -13z"/>
<path d="M6025 4187 c-6 -7 -15 -19 -19 -27 -7 -12 -6 -13 5 -2 26 24 29 11 8
-30 -12 -24 -32 -56 -44 -73 -12 -16 -26 -37 -30 -45 -8 -13 -7 -13 10 0 17
14 18 13 11 -5 -16 -40 -18 -55 -7 -55 7 0 8 -8 2 -23 -5 -13 -7 -35 -4 -50 4
-22 8 -25 19 -16 20 16 19 -10 -1 -38 -10 -14 -14 -39 -12 -75 3 -53 3 -53 37
-55 21 -1 41 -9 51 -22 29 -35 39 -25 39 37 0 67 -6 77 -50 100 -41 20 -51 42
-20 42 13 0 24 8 27 20 3 11 9 20 14 20 5 0 9 12 9 28 l-1 27 -29 -33 c-34
-37 -40 -33 -10 5 24 30 27 51 4 33 -13 -12 -14 -10 -3 13 7 15 20 27 28 27
10 0 17 8 17 20 0 11 -5 18 -11 16 -5 -2 -9 -9 -7 -15 1 -6 -2 -11 -8 -11 -15
0 -12 17 6 45 10 16 12 25 5 25 -6 0 -15 -10 -20 -22 -5 -13 -19 -49 -31 -80
-12 -32 -29 -63 -38 -70 -13 -11 -12 -8 2 20 14 26 15 36 5 48 -9 11 -8 19 7
35 11 12 18 23 17 25 -7 10 -2 34 10 46 23 24 44 79 39 103 -5 28 -12 30 -27
12z"/>
<path d="M6142 4170 c-16 -26 -15 -60 2 -60 15 0 27 21 31 58 4 27 -16 29 -33
2z"/>
<path d="M1358 4173 c7 -3 16 -2 19 1 4 3 -2 6 -13 5 -11 0 -14 -3 -6 -6z"/>
<path d="M1854 4148 c-22 -44 -44 -69 -71 -79 -28 -10 -24 -26 15 -68 18 -18
33 -37 33 -42 5 -31 20 -69 27 -69 4 0 18 7 31 16 13 10 49 20 80 23 l56 6 1
60 c1 33 5 75 9 93 5 24 4 32 -6 33 -8 1 -18 2 -24 4 -5 1 -20 3 -32 3 -12 1
-35 13 -51 27 -39 33 -48 32 -68 -7z"/>
<path d="M5599 4163 c-17 -20 -76 -46 -89 -38 -4 3 -16 2 -25 -1 -13 -5 -15
-14 -10 -38 4 -17 7 -59 7 -94 l-1 -62 48 1 c34 2 59 -4 83 -19 39 -25 53 -19
63 26 4 18 22 48 41 67 33 33 38 65 10 65 -16 0 -50 37 -70 78 -18 35 -36 41
-57 15z"/>
<path d="M2253 4150 c-1 -11 2 -22 8 -25 15 -10 10 -28 -5 -22 -14 6 -26 -12
-26 -39 0 -11 9 -8 38 9 20 13 37 29 36 36 -1 6 -2 20 -2 32 -1 11 -6 18 -11
14 -5 -3 -12 -1 -16 5 -10 16 -21 12 -22 -10z"/>
<path d="M6176 4093 c-6 -14 -5 -15 5 -6 7 7 10 15 7 18 -3 3 -9 -2 -12 -12z"/>
<path d="M1349 4058 c-1 -13 -2 -38 -2 -55 -1 -32 -19 -45 -32 -23 -3 6 -11
10 -17 10 -6 0 -1 -8 10 -19 28 -24 28 -31 0 -24 l-23 6 24 -26 c14 -15 21
-30 16 -34 -4 -5 -10 -2 -12 5 -3 6 -9 10 -14 7 -5 -4 -2 -17 7 -30 15 -23 15
-25 0 -31 -15 -6 -17 -24 -15 -140 1 -73 6 -131 11 -128 4 3 8 -2 8 -10 0 -9
6 -16 13 -16 8 0 7 -3 -3 -9 -8 -6 -18 -7 -24 -4 -5 3 -6 2 -3 -4 4 -5 19 -10
35 -11 28 -1 28 0 22 51 -11 110 -1 410 14 436 4 5 2 12 -4 16 -7 4 -7 12 0
25 13 24 13 30 0 30 -5 0 -11 -10 -11 -22z"/>
<path d="M2263 4037 c-46 -11 -47 -13 -59 -117 -10 -92 -5 -395 6 -395 1 0 3
-13 5 -28 5 -39 55 -237 65 -256 4 -9 27 -61 51 -116 68 -156 164 -303 278
-427 44 -48 56 -56 71 -48 23 12 40 -8 19 -21 -10 -6 -11 -9 -1 -9 6 0 12 -6
12 -13 0 -15 93 -92 188 -157 130 -88 266 -148 492 -218 15 -4 39 -3 60 5 19
6 29 12 21 12 -8 1 -11 4 -8 7 4 4 13 1 22 -6 8 -7 15 -10 15 -6 0 3 11 1 25
-4 20 -8 29 -6 45 10 11 11 33 20 50 20 52 0 32 15 -24 18 -29 1 -64 5 -77 8
-13 3 -37 8 -54 10 -67 12 -215 59 -299 95 -194 83 -364 206 -510 370 -131
146 -272 399 -312 558 -2 9 -13 52 -24 96 -11 44 -23 109 -27 145 -16 152 -5
392 22 468 5 13 6 13 -52 -1z m1157 -1789 c0 -4 -7 -8 -15 -8 -8 0 -15 4 -15
8 0 5 7 9 15 9 8 0 15 -4 15 -9z"/>
<path d="M6150 3995 c0 -8 2 -15 4 -15 2 0 6 7 10 15 3 8 1 15 -4 15 -6 0 -10
-7 -10 -15z"/>
<path d="M6166 3975 c-9 -14 -13 -25 -8 -25 5 0 19 11 32 25 18 19 20 25 8 25
-9 0 -23 -11 -32 -25z"/>
<path d="M6177 3922 c-9 -10 -17 -31 -17 -47 l0 -28 25 29 c28 32 28 34 17 52
-7 10 -12 8 -25 -6z"/>
<path d="M6175 3840 c-27 -29 -6 -47 23 -20 12 12 22 25 22 30 0 17 -26 11
-45 -10z"/>
<path d="M6207 3804 c-4 -4 -7 -14 -7 -23 0 -11 3 -12 11 -4 6 6 10 16 7 23
-2 6 -7 8 -11 4z"/>
<path d="M6170 3770 c-9 -17 -5 -90 4 -90 21 1 46 27 46 49 0 17 -4 21 -19 16
-14 -4 -21 0 -24 12 -3 10 -6 16 -7 13z"/>
<path d="M5436 3661 c-4 -6 -9 -26 -11 -44 -5 -38 -5 -38 125 -53 25 -3 65 -9
89 -14 25 -4 51 -5 59 -2 9 3 13 1 9 -5 -4 -6 -28 -16 -54 -23 -55 -15 -52
-14 -78 -25 -11 -4 -54 -21 -95 -37 -41 -16 -78 -33 -82 -37 -12 -11 -14 -96
-3 -96 10 -1 119 -16 145 -21 8 -1 35 -5 60 -8 25 -3 65 -9 90 -14 25 -4 58
-8 74 -8 26 1 29 5 33 39 2 24 -1 39 -9 42 -21 7 -168 26 -220 28 -48 2 -53
12 -8 20 29 5 252 87 262 96 11 10 20 111 9 111 -5 0 -67 9 -137 19 -71 11
-150 22 -176 25 -26 4 -54 9 -62 12 -8 3 -17 1 -20 -5z"/>
<path d="M1669 3641 c-2 -11 3 -74 7 -95 2 -12 7 -43 10 -71 3 -27 7 -59 9
-70 1 -11 3 -33 4 -48 1 -26 4 -28 39 -25 l37 3 -2 57 -2 56 52 7 c29 4 63 8
77 10 14 2 52 7 84 11 33 3 67 8 75 9 9 2 22 4 29 4 10 1 12 11 8 39 -3 20 -5
41 -6 45 0 7 -112 1 -150 -8 -15 -4 -126 -16 -164 -19 -19 -1 -23 8 -28 72 -2
31 -4 32 -40 30 -21 -1 -38 -4 -39 -7z"/>
<path d="M5959 3578 c0 -2 -2 -22 -5 -46 -5 -33 -3 -41 8 -37 15 6 21 85 6 85
-4 0 -8 -1 -9 -2z"/>
<path d="M6193 3558 c-5 -7 -20 -33 -32 -57 l-22 -44 33 29 c23 20 34 38 33
57 0 31 0 31 -12 15z"/>
<path d="M1436 3501 c-4 -7 -5 -15 -2 -18 9 -9 19 4 14 18 -4 11 -6 11 -12 0z"/>
<path d="M6005 3490 c-4 -6 -10 -8 -15 -5 -5 3 -14 -3 -20 -14 -5 -11 -6 -22
-1 -25 10 -7 61 31 61 45 0 12 -17 12 -25 -1z"/>
<path d="M6173 3469 c-38 -45 -43 -81 -7 -45 7 8 19 16 25 18 6 2 9 15 7 29
l-3 26 -22 -28z"/>
<path d="M1315 3470 c-4 -6 3 -10 14 -10 25 0 27 6 6 13 -8 4 -17 2 -20 -3z"/>
<path d="M1320 3436 c0 -9 7 -16 16 -16 9 0 14 5 12 12 -6 18 -28 21 -28 4z"/>
<path d="M1325 3380 c-3 -5 -1 -10 4 -10 6 0 11 5 11 10 0 6 -2 10 -4 10 -3 0
-8 -4 -11 -10z"/>
<path d="M6041 3350 c-8 -29 -29 -61 -58 -90 -92 -93 -101 -106 -127 -185 -22
-70 -24 -81 -11 -91 20 -15 19 -25 -1 -17 -16 6 -36 -16 -40 -44 -1 -7 -16
-41 -33 -78 -17 -36 -31 -67 -31 -70 0 -2 -13 -26 -29 -54 l-30 -49 28 -82
c16 -45 31 -77 35 -71 4 5 0 27 -9 48 -20 47 -13 83 17 83 12 0 29 -6 37 -14
14 -13 21 -4 62 79 25 52 43 92 39 90 -10 -6 -36 26 -43 52 -3 13 1 27 8 33 8
6 11 18 8 26 -3 8 1 14 9 14 10 0 15 -13 16 -41 1 -22 4 -45 7 -49 3 -5 0 -11
-5 -13 -6 -3 -5 -4 2 -3 8 2 13 18 13 39 0 24 5 37 13 37 9 0 11 7 7 20 -4 13
-2 20 7 20 12 0 72 153 73 185 0 6 4 16 8 23 5 6 6 12 2 12 -3 0 -1 9 5 20 9
16 8 20 -5 20 -9 0 -22 6 -29 13 -11 11 -9 18 10 42 13 17 29 30 36 30 14 0
31 58 25 89 -2 15 -7 9 -16 -24z m-136 -400 c-3 -5 -10 -10 -16 -10 -5 0 -9 5
-9 10 0 6 7 10 16 10 8 0 12 -4 9 -10z"/>
<path d="M6144 3379 c-18 -29 -41 -169 -28 -169 26 1 49 39 58 97 5 25 3 43
-3 47 -6 4 -8 13 -4 21 6 17 -13 20 -23 4z"/>
<path d="M1336 3335 c4 -8 10 -12 15 -9 14 8 10 24 -6 24 -9 0 -12 -6 -9 -15z"/>
<path d="M2075 3338 c-11 -6 -21 -12 -22 -13 -2 0 6 -25 17 -53 41 -108 13
-165 -95 -194 -41 -11 -50 -10 -83 7 -42 23 -74 72 -76 118 -2 30 -4 32 -41
32 -38 0 -40 -2 -37 -30 18 -177 168 -277 313 -208 119 57 154 164 95 296 -25
58 -36 65 -71 45z"/>
<path d="M5357 3256 l-18 -41 27 -21 27 -22 33 20 c36 21 52 38 35 38 -5 0
-12 -6 -15 -12 -3 -7 -4 -4 -1 7 3 15 -6 27 -33 46 l-37 27 -18 -42z m43 -56
c0 -5 -5 -10 -11 -10 -5 0 -7 5 -4 10 3 6 8 10 11 10 2 0 4 -4 4 -10z"/>
<path d="M1351 3219 c5 -11 8 -19 5 -19 -6 0 28 -124 69 -245 42 -125 82 -215
95 -215 6 0 8 -6 4 -12 -6 -10 -4 -10 7 0 22 20 34 14 14 -8 -18 -20 -18 -21
-1 -14 15 6 17 3 11 -14 -3 -13 -2 -22 4 -22 12 0 41 -28 41 -41 0 -6 -4 -8
-9 -4 -5 3 -12 1 -15 -4 -4 -5 1 -8 11 -7 9 2 29 -11 46 -28 l29 -31 -21 32
c-12 17 -21 36 -21 42 0 6 -5 11 -10 11 -6 0 -9 3 -8 8 1 4 -7 27 -19 52 -51
111 -136 333 -150 394 -2 12 -6 26 -7 31 -2 6 -7 25 -11 43 -4 17 -14 32 -21
32 -8 0 -14 5 -14 10 0 6 5 10 10 10 25 0 7 15 -20 16 -25 1 -28 -1 -19 -17z"/>
<path d="M6136 3194 c-10 -25 1 -29 14 -5 6 12 7 21 1 21 -5 0 -12 -7 -15 -16z"/>
<path d="M5490 3190 c0 -6 -3 -9 -7 -7 -12 7 -53 -11 -53 -23 0 -6 12 -9 28
-6 15 2 30 5 33 5 12 2 18 30 9 36 -6 4 -10 1 -10 -5z"/>
<path d="M5515 3150 c-3 -5 -15 -15 -27 -21 -16 -8 -19 -8 -13 1 6 9 3 9 -12
1 -11 -6 -24 -7 -28 -3 -4 4 -6 1 -3 -7 2 -8 -4 -24 -15 -35 -10 -12 -29 -34
-43 -51 -14 -16 -23 -25 -20 -18 8 15 -8 25 -27 17 -13 -5 -26 -29 -31 -57 0
-4 -8 -12 -16 -17 -16 -10 -16 -10 38 -15 15 -1 56 -5 92 -9 36 -3 94 -8 130
-11 36 -2 65 -5 65 -5 0 -1 14 -2 32 -3 31 -2 34 1 54 56 12 32 20 59 18 61
-2 1 -37 29 -78 61 -73 59 -104 74 -116 55z m1 -69 c11 -10 39 -30 62 -45 23
-14 42 -28 42 -30 0 -2 -15 -2 -32 0 -18 3 -53 6 -77 9 -24 2 -46 6 -48 9 -6
6 19 76 27 76 3 0 15 -8 26 -19z"/>
<path d="M6048 3018 c-37 -111 -43 -137 -33 -151 7 -9 17 -17 22 -17 9 0 32
54 47 105 1 6 13 43 26 83 l24 72 -20 21 -21 20 -45 -133z"/>
<path d="M2125 2941 c-32 -14 -219 -124 -234 -137 -3 -2 33 -67 46 -84 2 -2 7
0 11 5 7 10 154 100 209 129 18 9 43 16 57 16 32 0 66 -36 66 -71 0 -34 -35
-65 -163 -144 -53 -33 -97 -64 -97 -70 1 -5 11 -23 25 -39 l23 -29 107 63 c58
35 119 76 135 92 48 45 58 76 52 149 -1 8 -16 36 -32 61 -50 75 -124 97 -205
59z"/>
<path d="M5164 2854 c-19 -35 -19 -36 0 -50 14 -10 23 -11 33 -3 7 6 11 15 8
19 -3 5 -1 11 5 15 6 4 8 10 5 15 -3 5 0 12 6 16 8 4 7 9 -2 15 -24 15 -35 10
-55 -27z"/>
<path d="M5231 2818 l-20 -41 92 -60 c51 -33 98 -62 105 -64 18 -7 15 -24 -13
-65 -14 -20 -25 -39 -25 -41 0 -2 13 -13 29 -25 l29 -21 36 49 c20 28 36 52
36 55 0 3 23 40 51 82 l51 77 -27 23 c-14 13 -29 23 -33 23 -4 0 -20 -20 -35
-45 -33 -51 -22 -54 -151 29 -44 29 -86 55 -92 59 -7 4 -20 -9 -33 -35z"/>
<path d="M5988 2848 c-2 -7 -3 -35 -2 -63 3 -48 2 -49 -11 -25 l-14 25 -1 -23
c0 -13 -4 -20 -10 -17 -5 3 -10 -3 -10 -14 0 -12 5 -21 11 -21 5 0 7 6 4 13
-4 6 1 3 9 -7 9 -11 17 -17 17 -13 1 4 2 12 3 17 0 6 8 15 16 20 8 5 11 10 6
10 -5 0 -4 6 2 13 5 6 8 26 5 42 -2 17 -5 36 -5 43 -1 6 -5 12 -9 12 -4 0 -9
-6 -11 -12z"/>
<path d="M5940 2689 c0 -5 -4 -8 -9 -5 -5 4 -20 -13 -34 -37 -23 -43 -23 -44
-5 -67 10 -12 20 -21 21 -19 28 36 53 139 35 139 -5 0 -8 -5 -8 -11z"/>
<path d="M5650 2618 c-12 -20 -16 -34 -9 -37 14 -4 18 1 29 38 11 40 5 39 -20
-1z"/>
<path d="M4986 2615 c-50 -34 -60 -44 -80 -82 -35 -69 -15 -133 68 -218 41
-42 62 -56 76 -52 11 3 20 2 20 -2 0 -4 16 -6 35 -5 28 3 33 0 28 -14 -11 -32
-16 -35 -28 -18 -11 14 -13 15 -18 1 -4 -8 3 -24 15 -35 l22 -20 33 32 33 32
-95 94 c-108 106 -129 139 -116 174 13 35 35 49 72 46 28 -2 52 -20 129 -93
52 -49 97 -93 98 -97 7 -16 29 -7 57 21 l28 30 -89 86 c-110 108 -153 137
-207 142 -33 4 -50 -1 -81 -22z"/>
<path d="M2400 2610 c-106 -30 -182 -125 -174 -219 5 -62 39 -111 151 -215
l31 -28 141 141 c78 77 141 146 141 154 0 15 -87 102 -111 110 -10 3 -25 -4
-37 -18 l-21 -24 24 -18 c13 -10 25 -23 27 -30 2 -6 -37 -52 -86 -103 -65 -66
-95 -90 -110 -88 -12 2 -21 8 -21 13 0 6 -9 23 -19 38 -17 24 -21 48 -17 96 2
21 109 122 115 108 2 -7 5 -1 5 13 1 20 3 22 11 10 6 -10 10 -11 10 -2 0 6 7
12 16 12 8 0 12 5 9 10 -4 6 -11 7 -17 4 -7 -5 -8 -2 -3 5 4 7 18 11 31 8 34
-6 30 10 -3 17 -55 12 -68 13 -93 6z"/>
<path d="M2530 2565 c-7 -9 -10 -18 -7 -21 3 -3 10 4 17 15 13 25 8 27 -10 6z"/>
<path d="M5856 2565 c4 -8 2 -15 -3 -15 -6 0 -15 -12 -21 -26 -7 -14 -8 -23
-2 -19 5 3 10 3 11 -2 0 -4 2 -16 4 -25 2 -10 -3 -18 -11 -18 -8 0 -14 -6 -14
-12 0 -28 -18 -42 -61 -47 -4 -1 -34 -38 -67 -83 -73 -101 -118 -152 -244
-281 -54 -54 -98 -100 -98 -101 0 -2 15 -3 34 -4 31 -1 44 9 141 110 115 120
221 251 292 362 33 51 44 76 42 101 -2 18 2 39 9 47 11 14 7 28 -9 28 -5 0 -6
-7 -3 -15z"/>
<path d="M5691 2498 c-1 -49 0 -51 14 -31 10 14 13 32 9 52 -10 48 -21 37 -23
-21z"/>
<path d="M5886 2533 c-6 -14 -5 -15 5 -6 7 7 10 15 7 18 -3 3 -9 -2 -12 -12z"/>
<path d="M5615 2502 c-11 -9 -20 -23 -19 -29 1 -7 2 -20 3 -28 1 -21 19 -19
24 3 4 13 5 12 7 -5 1 -13 4 -27 5 -33 1 -5 3 -15 4 -22 1 -8 4 -9 11 -2 7 7
7 21 -1 43 -9 26 -9 35 1 41 7 4 9 16 5 29 -8 25 -14 26 -40 3z"/>
<path d="M5583 2503 c-15 -6 -17 -49 -3 -58 6 -4 9 3 6 17 -2 13 1 29 6 36 11
13 10 13 -9 5z"/>
<path d="M1660 2485 c-10 -12 -9 -15 5 -15 14 0 15 -3 5 -15 -16 -19 5 -21 24
-2 17 16 9 37 -11 30 -11 -4 -14 -2 -9 5 10 17 1 15 -14 -3z"/>
<path d="M5547 2457 c-4 -10 -3 -26 2 -34 11 -21 19 -4 11 27 -5 22 -7 23 -13
7z"/>
<path d="M5785 2449 c-4 -6 -5 -12 -2 -15 2 -3 7 2 10 11 7 17 1 20 -8 4z"/>
<path d="M1717 2423 c-4 -3 -7 -11 -7 -17 0 -6 5 -5 12 2 6 6 9 14 7 17 -3 3
-9 2 -12 -2z"/>
<path d="M5477 2369 c-35 -44 -46 -66 -43 -84 4 -21 1 -25 -21 -25 -18 0 -44
-18 -88 -62 -102 -104 -213 -195 -382 -312 -14 -11 -19 -22 -16 -36 3 -11 9
-17 14 -14 5 3 7 9 5 13 -3 4 -1 13 5 21 7 13 9 12 9 -2 0 -15 5 -15 48 6 47
23 106 40 179 52 44 7 87 39 199 152 154 154 164 167 158 201 -6 27 -4 31 15
31 14 0 20 -4 16 -12 -4 -7 7 2 23 20 l30 34 -21 21 c-24 24 -57 33 -57 15 0
-17 -17 3 -22 24 -2 12 -16 0 -51 -43z"/>
<path d="M4737 2394 l-37 -25 46 -65 c44 -62 46 -66 28 -79 -32 -24 -60 -17
-115 30 -29 25 -57 45 -61 45 -5 0 -25 -11 -44 -23 l-34 -24 40 -36 c55 -52
111 -88 123 -80 7 4 8 -2 3 -18 -14 -50 -15 -61 -3 -87 23 -54 74 -83 124 -72
34 8 117 55 167 95 l29 23 -22 36 c-27 43 -34 44 -49 11 -12 -27 -76 -73 -111
-80 -28 -5 -61 27 -61 59 0 15 12 33 35 50 l34 26 26 -45 c15 -25 31 -45 36
-45 5 0 18 18 29 40 16 32 18 44 9 61 -19 37 -140 218 -148 223 -4 3 -24 -6
-44 -20z"/>
<path d="M1780 2346 c0 -3 8 -12 17 -22 16 -15 16 -17 0 -29 -9 -7 -17 -16
-17 -21 0 -4 5 -3 12 4 19 19 32 14 50 -16 16 -27 16 -30 0 -45 -15 -16 -15
-17 3 -18 11 -1 26 -1 33 0 6 1 12 -3 12 -9 0 -5 -4 -10 -10 -10 -5 0 -10 -4
-10 -10 0 -5 9 -10 20 -10 14 0 20 -7 20 -23 0 -25 167 -203 187 -199 6 1 14
-7 18 -18 6 -18 8 -19 30 -4 l24 16 -61 56 c-76 71 -213 224 -270 302 -37 51
-58 71 -58 56z m360 -410 c0 -3 -4 -8 -10 -11 -5 -3 -10 -1 -10 4 0 6 5 11 10
11 6 0 10 -2 10 -4z"/>
<path d="M2735 2336 c-51 -19 -118 -92 -138 -150 -28 -81 -7 -157 57 -214 125
-109 314 -25 343 153 3 17 5 32 6 35 0 3 -5 24 -11 47 -30 102 -156 165 -257
129z m134 -85 c25 -14 44 -71 35 -107 -11 -45 -51 -103 -86 -123 -38 -24 -83
-19 -116 11 -21 20 -23 29 -19 76 12 113 106 185 186 143z"/>
<path d="M1810 2239 c0 -5 5 -9 10 -9 6 0 12 0 15 0 14 0 8 13 -7 16 -10 1
-18 -2 -18 -7z"/>
<path d="M4463 2229 l-41 -19 5 -53 5 -53 -55 -21 -55 -20 -33 43 c-18 24 -33
44 -34 44 -9 0 -95 -33 -95 -36 0 -3 21 -31 48 -63 26 -32 74 -94 107 -139 33
-45 68 -84 78 -88 10 -3 16 -12 13 -19 -11 -29 18 -33 74 -11 l55 22 -1 55
c-2 54 -13 261 -18 332 -2 20 -5 39 -7 41 -2 3 -23 -4 -46 -15z m-17 -243 c2
-21 5 -56 8 -78 3 -23 4 -39 2 -37 -2 2 -25 32 -50 67 l-47 63 33 14 c44 19
52 15 54 -29z"/>
<path d="M3079 2204 c-7 -63 -4 -154 7 -177 12 -26 11 -28 -21 -41 -41 -18
-65 -52 -67 -98 -2 -71 61 -119 195 -149 31 -7 59 -10 61 -8 2 2 24 72 50 154
26 83 50 157 53 165 3 8 7 20 8 25 2 6 4 16 6 24 2 8 -5 17 -16 19 -11 2 -23
8 -26 13 -8 13 -61 -31 -56 -45 3 -7 -1 -20 -9 -30 -7 -11 -11 -23 -8 -28 10
-16 -24 -40 -43 -29 -14 7 -22 3 -40 -24 -24 -36 -29 -50 -14 -41 5 4 21 2 35
-4 22 -8 24 -13 17 -32 -19 -46 -24 -63 -23 -70 4 -17 -30 -14 -59 5 -43 29
-54 69 -27 99 54 61 66 91 67 175 1 81 1 81 -26 85 -16 3 -36 9 -45 13 -10 4
-18 3 -19 -1z m261 -109 c-7 -8 -18 -15 -24 -15 -6 0 -2 7 8 15 25 19 32 19
16 0z"/>
<path d="M4080 2109 c-19 -4 -75 -12 -123 -19 l-88 -12 3 -40 c2 -39 2 -39 37
-34 105 16 144 18 138 10 -3 -5 -2 -30 3 -54 5 -25 11 -65 14 -90 3 -25 8 -54
10 -65 3 -11 5 -32 5 -47 1 -33 24 -37 48 -8 10 11 21 20 26 20 5 0 4 -7 -3
-15 -15 -18 -7 -31 10 -20 13 8 9 85 -9 189 -6 32 -10 61 -9 65 0 3 -1 8 -2
11 -1 3 -4 16 -5 30 -9 62 -13 81 -16 84 -2 1 -20 -1 -39 -5z"/>
<path d="M3620 2073 c-1 -4 -3 -24 -5 -43 -3 -19 -7 -48 -9 -65 -2 -19 -8 -29
-17 -26 -40 10 -123 -4 -155 -27 -34 -25 -48 -66 -45 -133 1 -33 37 -74 76
-89 49 -19 192 -32 201 -19 2 5 6 30 9 56 2 26 5 48 5 48 1 0 3 21 5 47 2 26
7 71 11 100 4 29 7 75 8 103 l1 50 -42 3 c-24 1 -43 -1 -43 -5z m-28 -228 c3
-14 1 -28 -4 -31 -4 -3 -6 -10 -2 -15 3 -6 3 -21 0 -34 -6 -23 -14 -25 -68
-16 -4 0 -16 10 -26 22 -37 38 3 98 64 99 26 0 33 -5 36 -25z"/>
<path d="M2175 1879 c-11 -17 -2 -18 19 -3 17 12 17 14 4 14 -9 0 -20 -5 -23
-11z"/>
<path d="M2201 1861 c-9 -6 -10 -11 -2 -15 13 -8 31 1 31 15 0 11 -11 11 -29
0z"/>
<path d="M4858 1836 c-16 -12 -22 -60 -6 -50 4 3 8 -5 8 -18 0 -17 2 -20 9 -9
5 8 7 20 4 28 -3 7 0 13 6 13 6 0 11 11 11 25 0 28 -7 30 -32 11z"/>
<path d="M5036 1832 c-3 -4 -1 -14 3 -20 6 -10 13 -9 30 5 l23 19 -26 2 c-14
1 -27 -2 -30 -6z"/>
<path d="M5202 1818 c-8 -8 -8 -17 -1 -30 8 -15 13 -17 25 -7 8 6 14 17 14 24
0 18 -25 26 -38 13z"/>
<path d="M5255 1821 c-3 -5 -1 -12 4 -15 5 -3 11 1 15 9 6 16 -9 21 -19 6z"/>
<path d="M2276 1804 c-8 -21 -4 -25 14 -14 11 7 12 12 4 20 -8 8 -13 7 -18 -6z"/>
<path d="M4898 1793 c-2 -47 -3 -51 -11 -59 -4 -4 -7 -13 -7 -21 0 -11 5 -10
25 3 14 9 22 21 18 28 -17 26 -10 39 8 16 l20 -25 -16 39 c-8 21 -15 40 -15
42 0 2 -4 4 -10 4 -5 0 -11 -12 -12 -27z"/>
<path d="M4965 1788 c-9 -23 -3 -39 11 -30 7 4 8 15 4 27 -7 18 -9 18 -15 3z"/>
<path d="M5157 1788 c-5 -16 3 -48 12 -48 3 0 12 4 20 9 10 7 11 13 2 30 -13
24 -27 27 -34 9z"/>
<path d="M4763 1764 c-4 -16 -6 -35 -5 -41 4 -17 -8 -16 -32 2 -26 20 -63 21
-47 2 6 -8 8 -17 5 -20 -3 -3 -2 -12 2 -19 5 -7 10 -22 11 -32 5 -29 10 -30
23 -5 10 18 9 23 -4 31 -9 5 -16 17 -16 26 1 28 40 -26 40 -55 0 -13 4 -22 9
-18 6 3 8 14 6 25 -2 12 0 18 6 15 5 -4 9 -13 9 -22 0 -13 3 -13 16 -2 14 12
14 14 0 25 -18 12 -22 54 -6 54 6 0 8 12 6 26 -7 38 -14 40 -23 8z"/>
<path d="M2381 1743 c-5 -10 -12 -17 -15 -15 -3 1 -9 2 -13 2 -24 0 199 -133
312 -187 28 -13 58 -28 68 -33 40 -23 280 -112 337 -126 8 -2 44 -11 80 -19
213 -53 301 -65 558 -72 l192 -5 1 23 c1 17 3 19 6 7 2 -10 9 -18 14 -18 6 0
7 6 4 13 -4 6 0 4 8 -5 8 -10 16 -15 19 -13 3 3 22 6 42 7 38 1 41 4 27 27 -7
11 -13 12 -23 3 -14 -11 -58 -6 -58 7 0 4 -49 7 -110 7 -92 -1 -109 -3 -107
-16 1 -10 -5 -14 -18 -12 -11 2 -29 4 -40 5 -11 0 -24 6 -30 13 -6 7 -49 15
-100 18 -102 7 -139 12 -210 26 -27 5 -61 12 -75 14 -178 33 -472 140 -622
227 -25 15 -48 25 -51 23 -2 -2 -10 2 -17 11 -7 8 -16 15 -21 15 -5 0 -31 14
-59 31 -32 19 -57 28 -69 24 -16 -5 -18 -2 -14 15 7 25 -2 26 -16 3z"/>
<path d="M4830 1741 c0 -6 5 -13 10 -16 6 -4 8 -10 6 -14 -3 -4 -1 -13 3 -20
13 -20 20 9 10 37 -8 22 -29 31 -29 13z"/>
<path d="M4100 1715 c-8 -9 -8 -15 -2 -15 12 0 26 19 19 26 -2 2 -10 -2 -17
-11z"/>
<path d="M5070 1714 c0 -8 5 -12 10 -9 6 4 8 11 5 16 -9 14 -15 11 -15 -7z"/>
<path d="M4605 1698 c3 -8 7 -34 9 -58 2 -24 8 -46 14 -48 6 -2 8 5 5 16 -2
11 0 29 5 39 11 20 7 30 -21 52 -15 12 -17 12 -12 -1z"/>
<path d="M4663 1648 c1 -27 6 -47 12 -45 15 5 14 41 -1 68 -12 22 -12 20 -11
-23z"/>
<path d="M4527 1660 c3 -11 7 -20 8 -20 1 0 5 9 8 20 3 12 0 20 -8 20 -8 0
-11 -8 -8 -20z"/>
<path d="M4501 1654 c0 -11 3 -14 6 -6 3 7 2 16 -1 19 -3 4 -6 -2 -5 -13z"/>
<path d="M4971 1663 c2 -26 15 -42 28 -34 17 11 7 41 -14 41 -8 0 -15 -3 -14
-7z"/>
<path d="M4563 1612 c1 -23 6 -44 10 -48 4 -4 5 12 3 35 -4 54 -16 66 -13 13z"/>
<path d="M4388 1635 c-5 -5 -93 -30 -140 -39 -81 -16 -131 -26 -134 -26 -2 0
-4 -9 -4 -20 0 -11 -4 -20 -10 -20 -5 0 -10 6 -10 14 0 35 -19 21 -44 -31 -25
-51 -26 -57 -12 -71 13 -14 16 -14 16 -2 0 13 1 13 10 0 8 -13 10 -13 15 1 4
11 16 14 42 11 26 -3 34 -1 28 7 -4 8 1 14 13 18 11 3 23 11 26 19 8 22 26 17
36 -11 6 -16 14 -23 25 -19 17 7 21 24 5 24 -5 0 -10 -6 -11 -12 0 -7 -4 -2
-10 10 -9 24 -5 42 10 42 5 0 14 -14 21 -30 16 -39 36 -33 33 11 l-2 34 14
-32 c14 -30 16 -31 47 -22 18 6 41 12 51 14 59 13 69 30 47 80 -9 21 -15 7
-10 -25 1 -11 -1 -12 -10 -3 -7 6 -12 27 -12 47 0 32 -14 47 -30 31z"/>
<path d="M4850 1587 c0 -14 4 -28 9 -32 6 -3 8 6 5 22 -7 37 -14 42 -14 10z"/>
<path d="M4504 1580 c3 -14 6 -28 6 -32 0 -5 4 -8 9 -8 12 0 9 20 -8 45 -12
19 -12 19 -7 -5z"/>
<path d="M4747 1528 c3 -17 2 -19 -5 -9 -6 8 -12 9 -16 3 -10 -16 19 -35 31
-20 12 17 11 40 -4 45 -7 3 -10 -4 -6 -19z"/>
<path d="M3641 1524 c0 -11 3 -14 6 -6 3 7 2 16 -1 19 -3 4 -6 -2 -5 -13z"/>
<path d="M4686 1522 c-3 -5 1 -18 9 -28 14 -18 14 -18 15 3 0 23 -15 39 -24
25z"/>
<path d="M4190 1459 c0 -5 5 -7 10 -4 6 3 10 8 10 11 0 2 -4 4 -10 4 -5 0 -10
-5 -10 -11z"/>
<path d="M4508 1440 c-7 -24 -3 -38 8 -28 3 4 4 17 2 30 l-3 23 -7 -25z"/>
<path d="M4450 1421 c0 -21 5 -29 15 -27 16 2 18 10 9 39 -9 27 -24 20 -24
-12z"/>
<path d="M4415 1428 c-10 -24 2 -55 16 -41 6 6 6 18 0 34 -8 21 -10 22 -16 7z"/>
<path d="M4362 1422 c-18 -3 -23 -9 -20 -30 3 -28 28 -44 28 -17 0 9 4 14 9
11 11 -7 21 18 13 30 -4 5 -17 8 -30 6z"/>
<path d="M4273 1398 c-46 -10 -52 -20 -28 -44 22 -22 82 -2 80 26 -2 27 -4 28
-52 18z"/>
<path d="M4134 1365 c-17 -13 -17 -14 -1 -15 9 0 17 -6 17 -13 0 -8 7 -14 16
-14 10 0 14 7 11 18 -5 17 -3 17 19 2 24 -15 29 -9 18 21 -8 20 -54 21 -80 1z"/>
<path d="M4043 1363 c-18 -6 -16 -28 2 -43 20 -17 26 -10 17 21 -4 14 -13 24
-19 22z"/>
<path d="M4125 1330 c-3 -5 -1 -10 4 -10 6 0 11 5 11 10 0 6 -2 10 -4 10 -3 0
-8 -4 -11 -10z"/>
</g>
</svg>
